<svg xmlns="http://www.w3.org/2000/svg" width="1249.857" height="218.609" viewBox="0 0 1249.857 218.609">
  <g id="_40" data-name="40" transform="translate(-335 -394.622)">
    <path id="star" d="M114.93,1.318l35.511,71.961,79.415,11.543-57.465,56.01,13.565,79.1L114.93,182.585,43.9,219.926l13.565-79.1L0,84.821,79.415,73.279Z" transform="translate(335 393.305)" fill="#efce4a"/>
    <path id="star-2" data-name="star" d="M114.93,1.318l35.511,71.961,79.415,11.543-57.465,56.01,13.565,79.1L114.93,182.585,43.9,219.926l13.565-79.1L0,84.821,79.415,73.279Z" transform="translate(590 393.305)" fill="#efce4a"/>
    <path id="star-3" data-name="star" d="M114.93,1.318l35.511,71.961,79.415,11.543-57.465,56.01,13.565,79.1L114.93,182.585,43.9,219.926l13.565-79.1L0,84.821,79.415,73.279Z" transform="translate(845 393.305)" fill="#efce4a"/>
    <path id="star-4" data-name="star" d="M114.93,1.318l35.511,71.961,79.415,11.543-57.465,56.01,13.565,79.1L114.93,182.585,43.9,219.926l13.565-79.1L0,84.821,79.415,73.279Z" transform="translate(1100 393.305)" fill="#efce4a"/>
    <path id="star-5" data-name="star" d="M114.93,1.318l35.511,71.961,79.415,11.543-57.465,56.01,13.565,79.1L114.93,182.585,43.9,219.926l13.565-79.1L0,84.821,79.415,73.279Z" transform="translate(1355 393.305)" fill="#efce4a"/>
  </g>
</svg>
